<svg xmlns="http://www.w3.org/2000/svg" viewBox="0 0 304.81 59.92"><defs><style>.cls-1{fill:#f9dfde;}</style></defs><title>Asset 1</title><g id="Layer_2" data-name="Layer 2"><g id="Layer_3" data-name="Layer 3"><path class="cls-1" d="M111.39,29.88A18.16,18.16,0,0,1,103.83,37a26.24,26.24,0,0,1-12.37,2.67H83.21V59.92H66.55V0H91.46a27,27,0,0,1,12.28,2.55,17.56,17.56,0,0,1,7.61,7.05A20.7,20.7,0,0,1,113.9,20,19.92,19.92,0,0,1,111.39,29.88ZM96.9,20q0-6.54-7.06-6.54H83.21v13h6.63Q96.91,26.43,96.9,20Z"/><path class="cls-1" d="M155.52,50.15H134.27L131,59.92H113.53L135.38,0h19.21l21.76,59.92h-17.6ZM151.36,37.4,144.9,18,138.52,37.4Z"/><path class="cls-1" d="M240.29,59.92H223.63L201.45,26.43V59.92H184.79V0h16.66l22.18,33.92V0h16.66Z"/><path class="cls-1" d="M290.06,3.78A26.58,26.58,0,0,1,301,14.36a31.21,31.21,0,0,1,3.83,15.56,30.71,30.71,0,0,1-3.87,15.47,27.46,27.46,0,0,1-11,10.67,33.85,33.85,0,0,1-16.45,3.86H249.81V0h23.72A34.64,34.64,0,0,1,290.06,3.78Zm-6.33,37.44q4.15-4,4.16-11.3t-4.16-11.43q-4.17-4-11.48-4h-5.78V45.22h5.78Q279.57,45.22,283.73,41.22Z"/></g><g id="Layer_2-2" data-name="Layer 2"><path class="cls-1" d="M35.25,59.61a1,1,0,0,0,.09.31h.9a.33.33,0,0,1-.06-.1q-1.53-4.92-3-9.85s0,0,0-.12l1.4,1.37q3,2.93,5.9,5.86a.66.66,0,0,1,.23.45c-.07.79-.16,1.59-.24,2.39H60.86L40.38,30.17,59.58,0H40.63L30.94,16.49,19.63,0H0L20.15,29.24.68,59.92H24.9c-.31-.57-.61-1.15-.91-1.73a.5.5,0,0,1,0-.43c.83-1.84,1.67-3.69,2.52-5.53l.07,0c0,.06.09.11.13.18,1.32,2.14,2.63,4.27,3.94,6.42a1.07,1.07,0,0,1,.15.63l0,.49h1.49c-1.8-3-3.64-5.9-5.39-8.89a42.28,42.28,0,0,1-4.57-10.31,14,14,0,0,1-.36-6.85c.13-.55.33-1.08.5-1.62l.08,0c3.67.39,6.36,2.5,8.81,5a43,43,0,0,1,5.51,7.17c2,3.13,3.86,6.32,5.77,9.49a1.42,1.42,0,0,1,.1.21L40.83,55.2c-.68.42-.68.42-1.27-.15L32.73,48.3c-.06-.06-.11-.15-.18-.17s-.41-.15-.52-.08a.55.55,0,0,0-.15.5c.2.75.44,1.49.67,2.24.77,2.49,1.53,5,2.31,7.46a.54.54,0,0,1-.3.77c-.52.28-1,.59-1.53.9h1.59l.58-.35S35.25,59.59,35.25,59.61ZM42.55,52a.71.71,0,0,1-.31-.26l-4-6.64s0-.06,0-.16l3.69.2c.82,0,1.64.08,2.46.14a.63.63,0,0,1,.42.21c1.62,2.32,3.23,4.66,4.84,7,.06.09.11.19.18.31-.48.5-.94,1-1.42,1.47a.43.43,0,0,1-.4.06C46.17,53.6,44.36,52.82,42.55,52Zm-.09,3.13c.37.62.74,1.2,1.08,1.8a.53.53,0,0,1-.21.77c-.62.39-1.25.76-2,1.2a8.88,8.88,0,0,1,.12-1.14A1.11,1.11,0,0,0,41,56.51a1.67,1.67,0,0,1-.29-.3Z"/><path class="cls-1" d="M26.57,39A3.26,3.26,0,1,0,31,40.07,3.27,3.27,0,0,0,26.57,39Zm2.92,4.93a2.47,2.47,0,1,1,.86-3.38A2.45,2.45,0,0,1,29.49,43.88Z"/></g></g></svg>